<?xml version="1.0" encoding="UTF-8"?><svg id="Layer_1" xmlns="http://www.w3.org/2000/svg" viewBox="0 0 185.81 85.18"><defs><style>.cls-1,.cls-2{fill:#28c;}.cls-3{fill:#616060;}.cls-4{fill:#807e7e;}.cls-4,.cls-2{fill-rule:evenodd;}</style></defs><g><path class="cls-1" d="m0,84.89v-16.41h3.44l5.76,8.27-1.87.12,6-8.39h3.37v16.41h-3.35v-13.75l.76.89-5.93,8.04-5.76-8.07.79-.69v13.58H0Z"/><path class="cls-1" d="m24.69,84.89l-6.17-16.41h3.84l4.94,14.22h-1.11l4.9-14.19,3.54-.02-6.4,16.41h-3.54Z"/><path class="cls-1" d="m36.44,84.89v-16.41h3l8.95,12.23-.96,1.97v-14.19h3.12v16.41h-2.73l-9.15-12.3.89-1.5v13.8h-3.12Z"/><path class="cls-1" d="m60.94,85.18c-1.62,0-3.02-.31-4.19-.92-1.17-.62-2.07-1.55-2.69-2.8-.62-1.25-.93-2.84-.93-4.76,0-2.8.68-4.92,2.03-6.36,1.35-1.43,3.28-2.15,5.79-2.15,1.62,0,3.02.31,4.19.92,1.17.61,2.07,1.55,2.69,2.8.62,1.25.93,2.84.93,4.76,0,2.8-.68,4.92-2.03,6.36-1.35,1.44-3.28,2.15-5.79,2.15Zm0-2.8c.97,0,1.78-.19,2.42-.57.65-.38,1.14-.99,1.46-1.83.33-.84.49-1.95.49-3.31s-.16-2.48-.49-3.31c-.33-.83-.82-1.43-1.46-1.81-.65-.38-1.46-.57-2.42-.57s-1.78.19-2.42.58c-.65.39-1.14.99-1.46,1.82-.33.83-.49,1.93-.49,3.31s.16,2.48.49,3.31c.33.83.82,1.43,1.46,1.81.65.38,1.46.57,2.42.57Z"/><path class="cls-3" d="m85.34,85.16c-2.61,0-4.58-.69-5.93-2.08-1.35-1.39-2.02-3.52-2.02-6.41s.66-4.92,1.97-6.36c1.31-1.43,3.3-2.15,5.98-2.15.87,0,1.74.11,2.61.32.87.21,1.71.51,2.53.89v2.95c-.82-.53-1.63-.9-2.42-1.13-.8-.23-1.55-.34-2.28-.34-1.08,0-1.99.19-2.72.58-.73.39-1.28,1-1.65,1.86-.37.85-.55,1.99-.55,3.42s.18,2.54.55,3.38c.37.84.93,1.46,1.67,1.83.75.38,1.69.57,2.82.57.67,0,1.4-.11,2.18-.33.78-.22,1.58-.59,2.4-1.1v2.95c-.48.23-1,.43-1.57.62-.57.18-1.17.32-1.78.41-.61.09-1.21.14-1.78.14Z"/><path class="cls-3" d="m99.95,85.18c-1.62,0-3.02-.31-4.19-.92-1.17-.62-2.07-1.55-2.69-2.8-.62-1.25-.93-2.84-.93-4.76,0-2.8.68-4.92,2.03-6.36,1.35-1.43,3.28-2.15,5.79-2.15,1.62,0,3.02.31,4.19.92,1.17.61,2.07,1.55,2.69,2.8.62,1.25.93,2.84.93,4.76,0,2.8-.68,4.92-2.03,6.36-1.35,1.44-3.28,2.15-5.79,2.15Zm0-2.8c.97,0,1.78-.19,2.42-.57.65-.38,1.14-.99,1.46-1.83.33-.84.49-1.95.49-3.31s-.16-2.48-.49-3.31c-.33-.83-.82-1.43-1.46-1.81-.65-.38-1.46-.57-2.42-.57s-1.78.19-2.42.58c-.65.39-1.14.99-1.46,1.82-.33.83-.49,1.93-.49,3.31s.16,2.48.49,3.31c.33.83.82,1.43,1.46,1.81.65.38,1.46.57,2.42.57Z"/><path class="cls-3" d="m110.32,84.89v-16.41h3l8.95,12.23-.96,1.97v-14.19h3.12v16.41h-2.73l-9.15-12.3.89-1.5v13.8h-3.12Z"/><path class="cls-3" d="m127.65,84.89v-16.41h3l8.95,12.23-.96,1.97v-14.19h3.12v16.41h-2.73l-9.15-12.3.89-1.5v13.8h-3.12Z"/><path class="cls-3" d="m144.98,84.89v-16.41h11v2.68h-7.63v4.16h6.64v2.71h-6.67v4.18h7.65v2.68h-11Z"/><path class="cls-3" d="m165.72,85.16c-2.61,0-4.58-.69-5.93-2.08-1.35-1.39-2.02-3.52-2.02-6.41s.66-4.92,1.97-6.36c1.31-1.43,3.3-2.15,5.98-2.15.87,0,1.74.11,2.61.32.87.21,1.71.51,2.53.89v2.95c-.82-.53-1.63-.9-2.42-1.13-.8-.23-1.55-.34-2.28-.34-1.08,0-1.99.19-2.72.58-.73.39-1.28,1-1.65,1.86-.37.85-.55,1.99-.55,3.42s.18,2.54.55,3.38c.37.84.93,1.46,1.67,1.83.75.38,1.69.57,2.82.57.67,0,1.4-.11,2.18-.33.78-.22,1.58-.59,2.4-1.1v2.95c-.48.23-1,.43-1.57.62-.57.18-1.17.32-1.78.41-.61.09-1.21.14-1.78.14Z"/><path class="cls-3" d="m177.47,84.89v-13.73h-4.94v-2.68h13.28v2.68h-4.99v13.73h-3.35Z"/></g><g><polygon class="cls-4" points="100.57 0 69.45 53.9 83.96 53.9 100.57 25.13 117.18 53.9 131.69 53.9 100.57 0 100.57 0"/><polygon class="cls-2" points="77.79 0 46.67 53.9 61.19 53.9 77.79 25.13 94.4 53.9 108.91 53.9 77.79 0 77.79 0"/></g></svg>