<?xml version="1.0" encoding="UTF-8" standalone="no"?>
<!DOCTYPE svg PUBLIC "-//W3C//DTD SVG 1.1//EN" "http://www.w3.org/Graphics/SVG/1.1/DTD/svg11.dtd">
<svg xmlns="http://www.w3.org/2000/svg" version="1.1" viewBox="0.00 0.00 506.00 99.00">
<path fill="#ffffff" d="
  M 0.00 0.00
  L 506.00 0.00
  L 506.00 99.00
  L 157.82 99.00
  L 100.59 0.73
  Q 100.16 -0.01 99.73 0.73
  L 79.03 36.28
  L 71.98 24.23
  L 58.18 0.54
  A 0.32 0.32 0.0 0 0 57.63 0.54
  L 43.94 24.08
  L 36.35 37.13
  L 26.76 53.52
  L 16.64 70.92
  Q 8.64 84.67 0.62 98.35
  Q 0.48 98.59 0.67 99.00
  L 0.00 99.00
  L 0.00 0.00
  Z
  M 327.75 63.01
  C 316.61 68.53 308.45 63.40 310.99 50.74
  C 312.62 42.61 321.90 42.44 327.28 46.09
  Q 328.48 46.90 328.47 45.46
  L 328.47 42.49
  A 2.21 2.20 -80.6 0 0 326.98 40.40
  C 311.95 35.25 302.42 42.83 304.47 58.50
  C 306.03 70.44 318.54 72.26 327.78 68.39
  Q 328.50 68.09 328.50 67.31
  L 328.47 63.45
  Q 328.46 62.66 327.75 63.01
  Z
  M 477.09 63.17
  C 469.91 66.77 461.62 66.57 460.33 56.99
  C 458.69 44.78 467.87 40.32 477.76 46.45
  A 0.20 0.20 0.0 0 0 478.07 46.27
  L 477.94 41.41
  A 0.43 0.42 11.4 0 0 477.69 41.04
  C 468.78 36.88 456.61 37.93 454.29 49.52
  C 451.10 65.49 461.61 73.99 476.88 68.56
  Q 477.96 68.18 477.97 67.04
  L 478.00 63.74
  Q 478.01 62.71 477.09 63.17
  Z
  M 288.0555 51.9550
  A 12.87 12.87 0.0 0 0 275.1630 39.1075
  L 272.2230 39.1126
  A 12.87 12.87 0.0 0 0 259.3755 52.0050
  L 259.3845 57.1850
  A 12.87 12.87 0.0 0 0 272.2770 70.0325
  L 275.2170 70.0274
  A 12.87 12.87 0.0 0 0 288.0645 57.1350
  L 288.0555 51.9550
  Z
  M 360.4346 52.0051
  A 12.88 12.88 0.0 0 0 347.5771 39.1026
  L 344.5971 39.0974
  A 12.88 12.88 0.0 0 0 331.6946 51.9549
  L 331.6854 57.1949
  A 12.88 12.88 0.0 0 0 344.5429 70.0974
  L 347.5229 70.1026
  A 12.88 12.88 0.0 0 0 360.4254 57.2451
  L 360.4346 52.0051
  Z
  M 165.91 69.46
  A 0.34 0.34 0.0 0 0 166.25 69.12
  L 166.25 48.68
  A 0.34 0.34 0.0 0 1 166.87 48.49
  L 175.30 60.32
  A 0.34 0.34 0.0 0 0 175.85 60.33
  L 184.63 48.64
  A 0.34 0.34 0.0 0 1 185.24 48.84
  L 185.22 69.09
  A 0.34 0.34 0.0 0 0 185.56 69.43
  L 190.97 69.48
  A 0.34 0.34 0.0 0 0 191.31 69.14
  L 191.30 39.95
  A 0.34 0.34 0.0 0 0 190.96 39.61
  L 185.28 39.60
  A 0.34 0.34 0.0 0 0 185.01 39.74
  L 176.11 52.00
  A 0.34 0.34 0.0 0 1 175.56 51.99
  L 166.87 39.69
  A 0.34 0.34 0.0 0 0 166.59 39.54
  L 160.84 39.60
  A 0.34 0.34 0.0 0 0 160.50 39.94
  L 160.50 69.13
  A 0.34 0.34 0.0 0 0 160.84 69.47
  L 165.91 69.46
  Z
  M 218.38 39.60
  A 0.32 0.32 0.0 0 0 218.08 39.81
  L 210.37 62.06
  A 0.32 0.32 0.0 0 1 209.77 62.06
  L 202.02 39.78
  A 0.32 0.32 0.0 0 0 201.72 39.57
  L 195.40 39.56
  A 0.32 0.32 0.0 0 0 195.11 39.99
  L 206.22 69.23
  A 0.32 0.32 0.0 0 0 206.52 69.44
  L 212.62 69.46
  A 0.32 0.32 0.0 0 0 212.92 69.26
  L 224.41 39.97
  A 0.32 0.32 0.0 0 0 224.11 39.54
  L 218.38 39.60
  Z
  M 233.69 69.48
  A 0.31 0.31 0.0 0 0 234.00 69.17
  L 234.01 50.07
  A 0.31 0.31 0.0 0 1 234.57 49.88
  L 249.16 69.33
  A 0.31 0.31 0.0 0 0 249.40 69.45
  L 253.94 69.47
  A 0.31 0.31 0.0 0 0 254.25 69.16
  L 254.25 39.86
  A 0.31 0.31 0.0 0 0 253.94 39.55
  L 248.99 39.58
  A 0.31 0.31 0.0 0 0 248.68 39.89
  L 248.71 58.89
  A 0.31 0.31 0.0 0 1 248.15 59.07
  L 233.81 39.65
  A 0.31 0.31 0.0 0 0 233.56 39.52
  L 228.55 39.59
  A 0.31 0.31 0.0 0 0 228.24 39.90
  L 228.23 69.12
  A 0.31 0.31 0.0 0 0 228.54 69.43
  L 233.69 69.48
  Z
  M 386.10 39.49
  A 0.34 0.34 0.0 0 0 385.76 39.83
  L 385.78 58.42
  A 0.34 0.34 0.0 0 1 385.17 58.62
  L 371.15 39.64
  A 0.34 0.34 0.0 0 0 370.88 39.50
  L 365.80 39.50
  A 0.34 0.34 0.0 0 0 365.46 39.84
  L 365.46 69.15
  A 0.34 0.34 0.0 0 0 365.80 69.49
  L 370.91 69.48
  A 0.34 0.34 0.0 0 0 371.25 69.14
  L 371.22 50.20
  A 0.34 0.34 0.0 0 1 371.83 50.00
  L 386.40 69.35
  A 0.34 0.34 0.0 0 0 386.67 69.49
  L 391.21 69.48
  A 0.34 0.34 0.0 0 0 391.55 69.14
  L 391.64 39.84
  A 0.34 0.34 0.0 0 0 391.30 39.50
  L 386.10 39.49
  Z
  M 418.01 58.48
  A 0.33 0.33 0.0 0 1 417.41 58.67
  L 403.38 39.64
  A 0.33 0.33 0.0 0 0 403.11 39.51
  L 398.02 39.51
  A 0.33 0.33 0.0 0 0 397.69 39.84
  L 397.67 69.21
  A 0.33 0.33 0.0 0 0 398.01 69.54
  L 403.15 69.47
  A 0.33 0.33 0.0 0 0 403.48 69.13
  L 403.43 50.16
  A 0.33 0.33 0.0 0 1 404.03 49.96
  L 418.66 69.38
  A 0.33 0.33 0.0 0 0 418.93 69.51
  L 423.45 69.48
  A 0.33 0.33 0.0 0 0 423.78 69.15
  L 423.78 39.83
  A 0.33 0.33 0.0 0 0 423.45 39.50
  L 418.33 39.52
  A 0.33 0.33 0.0 0 0 418.00 39.85
  L 418.01 58.48
  Z
  M 436.46 51.97
  A 0.33 0.33 0.0 0 1 436.13 51.64
  L 436.13 44.63
  A 0.33 0.33 0.0 0 1 436.46 44.30
  L 449.93 44.30
  A 0.33 0.33 0.0 0 0 450.26 43.97
  L 450.25 39.84
  A 0.33 0.33 0.0 0 0 449.92 39.51
  L 430.20 39.51
  A 0.33 0.33 0.0 0 0 429.87 39.84
  L 429.86 69.16
  A 0.33 0.33 0.0 0 0 430.19 69.49
  L 449.93 69.49
  A 0.33 0.33 0.0 0 0 450.26 69.16
  L 450.28 65.01
  A 0.33 0.33 0.0 0 0 449.95 64.68
  L 436.42 64.70
  A 0.33 0.33 0.0 0 1 436.09 64.37
  L 436.16 57.35
  A 0.33 0.33 0.0 0 1 436.49 57.02
  L 448.05 57.00
  A 0.33 0.33 0.0 0 0 448.38 56.67
  L 448.42 52.32
  A 0.33 0.33 0.0 0 0 448.09 51.99
  L 436.46 51.97
  Z
  M 489.93 44.30
  A 0.33 0.33 0.0 0 1 490.26 44.63
  L 490.25 69.14
  A 0.33 0.33 0.0 0 0 490.58 69.47
  L 496.16 69.56
  A 0.33 0.33 0.0 0 0 496.50 69.22
  L 496.48 44.63
  A 0.33 0.33 0.0 0 1 496.81 44.30
  L 505.43 44.29
  A 0.33 0.33 0.0 0 0 505.76 43.96
  L 505.77 39.84
  A 0.33 0.33 0.0 0 0 505.44 39.51
  L 481.50 39.52
  A 0.33 0.33 0.0 0 0 481.17 39.86
  L 481.25 43.98
  A 0.33 0.33 0.0 0 0 481.58 44.30
  L 489.93 44.30
  Z"
/>
<path fill="#807e7e" d="
  M 157.82 99.00
  L 130.96 99.00
  L 100.69 47.10
  Q 100.13 46.13 99.56 47.09
  L 92.45 59.18
  L 89.06 53.38
  L 80.60 38.85
  L 79.03 36.28
  L 99.73 0.73
  Q 100.16 -0.01 100.59 0.73
  L 157.82 99.00
  Z"
/>
<path fill="#43c0bd" d="
  M 71.98 24.23
  L 69.98 24.88
  Q 69.47 25.04 69.11 24.65
  Q 68.74 24.25 68.21 24.19
  Q 67.84 24.16 66.95 24.65
  Q 65.76 25.31 64.63 24.44
  Q 64.26 24.16 63.80 24.11
  Q 62.38 23.96 60.98 24.47
  Q 60.45 24.66 59.91 24.50
  Q 57.96 23.91 56.00 24.48
  Q 55.50 24.63 55.02 24.45
  Q 52.97 23.71 50.94 24.45
  Q 50.48 24.61 50.08 24.34
  Q 48.85 23.50 47.76 24.49
  Q 47.50 24.73 47.24 24.49
  L 46.99 24.25
  Q 46.68 23.96 46.32 24.20
  Q 45.20 25.00 43.94 24.08
  L 57.63 0.54
  A 0.32 0.32 0.0 0 1 58.18 0.54
  L 71.98 24.23
  Z"
/>
<path fill="#3db6c0" d="
  M 71.98 24.23
  L 79.03 36.28
  L 80.60 38.85
  Q 78.82 39.47 77.58 38.87
  Q 77.12 38.64 76.64 38.82
  Q 74.63 39.55 72.71 38.57
  Q 72.31 38.37 72.03 38.71
  Q 71.67 39.15 71.00 39.14
  Q 65.00 39.03 59.00 39.11
  Q 58.49 39.12 58.05 38.95
  Q 57.59 38.77 57.10 38.90
  Q 55.04 39.44 53.03 38.95
  Q 52.60 38.84 52.18 38.99
  Q 50.94 39.42 49.82 38.85
  Q 49.43 38.65 49.07 38.91
  Q 48.49 39.32 47.91 38.88
  Q 47.53 38.60 47.12 38.84
  Q 45.72 39.63 44.85 38.40
  A 0.43 0.43 0.0 0 0 44.14 38.41
  Q 43.58 39.27 42.85 38.59
  Q 42.43 38.19 42.03 38.61
  Q 41.00 39.69 39.88 38.65
  Q 39.50 38.30 39.08 38.58
  Q 37.17 39.85 36.35 37.13
  L 43.94 24.08
  Q 45.20 25.00 46.32 24.20
  Q 46.68 23.96 46.99 24.25
  L 47.24 24.49
  Q 47.50 24.73 47.76 24.49
  Q 48.85 23.50 50.08 24.34
  Q 50.48 24.61 50.94 24.45
  Q 52.97 23.71 55.02 24.45
  Q 55.50 24.63 56.00 24.48
  Q 57.96 23.91 59.91 24.50
  Q 60.45 24.66 60.98 24.47
  Q 62.38 23.96 63.80 24.11
  Q 64.26 24.16 64.63 24.44
  Q 65.76 25.31 66.95 24.65
  Q 67.84 24.16 68.21 24.19
  Q 68.74 24.25 69.11 24.65
  Q 69.47 25.04 69.98 24.88
  L 71.98 24.23
  Z"
/>
<path fill="#36aac3" d="
  M 36.35 37.13
  Q 37.17 39.85 39.08 38.58
  Q 39.50 38.30 39.88 38.65
  Q 41.00 39.69 42.03 38.61
  Q 42.43 38.19 42.85 38.59
  Q 43.58 39.27 44.14 38.41
  A 0.43 0.43 0.0 0 1 44.85 38.40
  Q 45.72 39.63 47.12 38.84
  Q 47.53 38.60 47.91 38.88
  Q 48.49 39.32 49.07 38.91
  Q 49.43 38.65 49.82 38.85
  Q 50.94 39.42 52.18 38.99
  Q 52.60 38.84 53.03 38.95
  Q 55.04 39.44 57.10 38.90
  Q 57.59 38.77 58.05 38.95
  Q 58.49 39.12 59.00 39.11
  Q 65.00 39.03 71.00 39.14
  Q 71.67 39.15 72.03 38.71
  Q 72.31 38.37 72.71 38.57
  Q 74.63 39.55 76.64 38.82
  Q 77.12 38.64 77.58 38.87
  Q 78.82 39.47 80.60 38.85
  L 89.06 53.38
  L 69.54 53.34
  Q 69.08 53.33 68.70 53.07
  Q 68.41 52.87 68.14 52.95
  C 66.88 53.31 64.88 53.20 63.55 53.07
  A 0.74 0.73 70.5 0 1 63.12 52.86
  L 62.84 52.59
  Q 62.37 52.11 62.08 52.72
  L 61.93 53.02
  L 58.24 46.74
  Q 57.90 46.17 57.57 46.74
  L 53.34 53.99
  Q 52.93 53.42 52.88 52.91
  Q 52.85 52.51 52.44 52.54
  Q 52.14 52.57 51.91 52.82
  Q 51.61 53.16 51.16 53.16
  L 29.75 53.02
  A 1.19 1.18 -67.6 0 0 28.87 53.39
  Q 27.94 54.37 26.76 53.52
  L 36.35 37.13
  Z"
/>
<path fill="#616060" d="
  M 327.75 63.01
  Q 328.46 62.66 328.47 63.45
  L 328.50 67.31
  Q 328.50 68.09 327.78 68.39
  C 318.54 72.26 306.03 70.44 304.47 58.50
  C 302.42 42.83 311.95 35.25 326.98 40.40
  A 2.21 2.20 -80.6 0 1 328.47 42.49
  L 328.47 45.46
  Q 328.48 46.90 327.28 46.09
  C 321.90 42.44 312.62 42.61 310.99 50.74
  C 308.45 63.40 316.61 68.53 327.75 63.01
  Z"
/>
<path fill="#616060" d="
  M 477.09 63.17
  Q 478.01 62.71 478.00 63.74
  L 477.97 67.04
  Q 477.96 68.18 476.88 68.56
  C 461.61 73.99 451.10 65.49 454.29 49.52
  C 456.61 37.93 468.78 36.88 477.69 41.04
  A 0.43 0.42 11.4 0 1 477.94 41.41
  L 478.07 46.27
  A 0.20 0.20 0.0 0 1 477.76 46.45
  C 467.87 40.32 458.69 44.78 460.33 56.99
  C 461.62 66.57 469.91 66.77 477.09 63.17
  Z"
/>
<path fill="#248ccb" d="
  M 288.0645 57.1350
  A 12.87 12.87 0.0 0 1 275.2170 70.0274
  L 272.2770 70.0325
  A 12.87 12.87 0.0 0 1 259.3845 57.1850
  L 259.3755 52.0050
  A 12.87 12.87 0.0 0 1 272.2230 39.1126
  L 275.1630 39.1075
  A 12.87 12.87 0.0 0 1 288.0555 51.9550
  L 288.0645 57.1350
  Z
  M 281.68 51.55
  A 7.43 7.43 0.0 0 0 274.25 44.12
  L 273.03 44.12
  A 7.43 7.43 0.0 0 0 265.60 51.55
  L 265.60 57.45
  A 7.43 7.43 0.0 0 0 273.03 64.88
  L 274.25 64.88
  A 7.43 7.43 0.0 0 0 281.68 57.45
  L 281.68 51.55
  Z"
/>
<path fill="#616060" d="
  M 360.4254 57.2451
  A 12.88 12.88 0.0 0 1 347.5229 70.1026
  L 344.5429 70.0974
  A 12.88 12.88 0.0 0 1 331.6854 57.1949
  L 331.6946 51.9549
  A 12.88 12.88 0.0 0 1 344.5971 39.0974
  L 347.5771 39.1026
  A 12.88 12.88 0.0 0 1 360.4346 52.0051
  L 360.4254 57.2451
  Z
  M 354.0847 51.4861
  A 7.36 7.36 0.0 0 0 346.7119 44.1389
  L 345.4719 44.1411
  A 7.36 7.36 0.0 0 0 338.1248 51.5139
  L 338.1353 57.5339
  A 7.36 7.36 0.0 0 0 345.5081 64.8811
  L 346.7481 64.8789
  A 7.36 7.36 0.0 0 0 354.0952 57.5061
  L 354.0847 51.4861
  Z"
/>
<path fill="#248ccb" d="
  M 165.91 69.46
  L 160.84 69.47
  A 0.34 0.34 0.0 0 1 160.50 69.13
  L 160.50 39.94
  A 0.34 0.34 0.0 0 1 160.84 39.60
  L 166.59 39.54
  A 0.34 0.34 0.0 0 1 166.87 39.69
  L 175.56 51.99
  A 0.34 0.34 0.0 0 0 176.11 52.00
  L 185.01 39.74
  A 0.34 0.34 0.0 0 1 185.28 39.60
  L 190.96 39.61
  A 0.34 0.34 0.0 0 1 191.30 39.95
  L 191.31 69.14
  A 0.34 0.34 0.0 0 1 190.97 69.48
  L 185.56 69.43
  A 0.34 0.34 0.0 0 1 185.22 69.09
  L 185.24 48.84
  A 0.34 0.34 0.0 0 0 184.63 48.64
  L 175.85 60.33
  A 0.34 0.34 0.0 0 1 175.30 60.32
  L 166.87 48.49
  A 0.34 0.34 0.0 0 0 166.25 48.68
  L 166.25 69.12
  A 0.34 0.34 0.0 0 1 165.91 69.46
  Z"
/>
<path fill="#248ccb" d="
  M 218.38 39.60
  L 224.11 39.54
  A 0.32 0.32 0.0 0 1 224.41 39.97
  L 212.92 69.26
  A 0.32 0.32 0.0 0 1 212.62 69.46
  L 206.52 69.44
  A 0.32 0.32 0.0 0 1 206.22 69.23
  L 195.11 39.99
  A 0.32 0.32 0.0 0 1 195.40 39.56
  L 201.72 39.57
  A 0.32 0.32 0.0 0 1 202.02 39.78
  L 209.77 62.06
  A 0.32 0.32 0.0 0 0 210.37 62.06
  L 218.08 39.81
  A 0.32 0.32 0.0 0 1 218.38 39.60
  Z"
/>
<path fill="#248ccb" d="
  M 233.69 69.48
  L 228.54 69.43
  A 0.31 0.31 0.0 0 1 228.23 69.12
  L 228.24 39.90
  A 0.31 0.31 0.0 0 1 228.55 39.59
  L 233.56 39.52
  A 0.31 0.31 0.0 0 1 233.81 39.65
  L 248.15 59.07
  A 0.31 0.31 0.0 0 0 248.71 58.89
  L 248.68 39.89
  A 0.31 0.31 0.0 0 1 248.99 39.58
  L 253.94 39.55
  A 0.31 0.31 0.0 0 1 254.25 39.86
  L 254.25 69.16
  A 0.31 0.31 0.0 0 1 253.94 69.47
  L 249.40 69.45
  A 0.31 0.31 0.0 0 1 249.16 69.33
  L 234.57 49.88
  A 0.31 0.31 0.0 0 0 234.01 50.07
  L 234.00 69.17
  A 0.31 0.31 0.0 0 1 233.69 69.48
  Z"
/>
<path fill="#616060" d="
  M 386.10 39.49
  L 391.30 39.50
  A 0.34 0.34 0.0 0 1 391.64 39.84
  L 391.55 69.14
  A 0.34 0.34 0.0 0 1 391.21 69.48
  L 386.67 69.49
  A 0.34 0.34 0.0 0 1 386.40 69.35
  L 371.83 50.00
  A 0.34 0.34 0.0 0 0 371.22 50.20
  L 371.25 69.14
  A 0.34 0.34 0.0 0 1 370.91 69.48
  L 365.80 69.49
  A 0.34 0.34 0.0 0 1 365.46 69.15
  L 365.46 39.84
  A 0.34 0.34 0.0 0 1 365.80 39.50
  L 370.88 39.50
  A 0.34 0.34 0.0 0 1 371.15 39.64
  L 385.17 58.62
  A 0.34 0.34 0.0 0 0 385.78 58.42
  L 385.76 39.83
  A 0.34 0.34 0.0 0 1 386.10 39.49
  Z"
/>
<path fill="#616060" d="
  M 418.01 58.48
  L 418.00 39.85
  A 0.33 0.33 0.0 0 1 418.33 39.52
  L 423.45 39.50
  A 0.33 0.33 0.0 0 1 423.78 39.83
  L 423.78 69.15
  A 0.33 0.33 0.0 0 1 423.45 69.48
  L 418.93 69.51
  A 0.33 0.33 0.0 0 1 418.66 69.38
  L 404.03 49.96
  A 0.33 0.33 0.0 0 0 403.43 50.16
  L 403.48 69.13
  A 0.33 0.33 0.0 0 1 403.15 69.47
  L 398.01 69.54
  A 0.33 0.33 0.0 0 1 397.67 69.21
  L 397.69 39.84
  A 0.33 0.33 0.0 0 1 398.02 39.51
  L 403.11 39.51
  A 0.33 0.33 0.0 0 1 403.38 39.64
  L 417.41 58.67
  A 0.33 0.33 0.0 0 0 418.01 58.48
  Z"
/>
<path fill="#616060" d="
  M 436.46 51.97
  L 448.09 51.99
  A 0.33 0.33 0.0 0 1 448.42 52.32
  L 448.38 56.67
  A 0.33 0.33 0.0 0 1 448.05 57.00
  L 436.49 57.02
  A 0.33 0.33 0.0 0 0 436.16 57.35
  L 436.09 64.37
  A 0.33 0.33 0.0 0 0 436.42 64.70
  L 449.95 64.68
  A 0.33 0.33 0.0 0 1 450.28 65.01
  L 450.26 69.16
  A 0.33 0.33 0.0 0 1 449.93 69.49
  L 430.19 69.49
  A 0.33 0.33 0.0 0 1 429.86 69.16
  L 429.87 39.84
  A 0.33 0.33 0.0 0 1 430.20 39.51
  L 449.92 39.51
  A 0.33 0.33 0.0 0 1 450.25 39.84
  L 450.26 43.97
  A 0.33 0.33 0.0 0 1 449.93 44.30
  L 436.46 44.30
  A 0.33 0.33 0.0 0 0 436.13 44.63
  L 436.13 51.64
  A 0.33 0.33 0.0 0 0 436.46 51.97
  Z"
/>
<path fill="#616060" d="
  M 489.93 44.30
  L 481.58 44.30
  A 0.33 0.33 0.0 0 1 481.25 43.98
  L 481.17 39.86
  A 0.33 0.33 0.0 0 1 481.50 39.52
  L 505.44 39.51
  A 0.33 0.33 0.0 0 1 505.77 39.84
  L 505.76 43.96
  A 0.33 0.33 0.0 0 1 505.43 44.29
  L 496.81 44.30
  A 0.33 0.33 0.0 0 0 496.48 44.63
  L 496.50 69.22
  A 0.33 0.33 0.0 0 1 496.16 69.56
  L 490.58 69.47
  A 0.33 0.33 0.0 0 1 490.25 69.14
  L 490.26 44.63
  A 0.33 0.33 0.0 0 0 489.93 44.30
  Z"
/>
<rect fill="#ffffff" x="265.60" y="44.12" width="16.08" height="20.76" rx="7.43"/>
<rect fill="#ffffff" x="-7.98" y="-10.37" transform="translate(346.11,54.51) rotate(-0.1)" width="15.96" height="20.74" rx="7.36"/>
<path fill="#ffffff" d="
  M 61.93 53.02
  L 65.61 59.36
  L 42.50 99.00
  L 27.13 99.00
  L 41.53 74.24
  L 53.34 53.99
  L 57.57 46.74
  Q 57.90 46.17 58.24 46.74
  L 61.93 53.02
  Z"
/>
<path fill="#ffffff" d="
  M 130.96 99.00
  L 115.57 99.00
  L 99.52 71.47
  L 92.45 59.18
  L 99.56 47.09
  Q 100.13 46.13 100.69 47.10
  L 130.96 99.00
  Z"
/>
<path fill="#2e9cc7" d="
  M 89.06 53.38
  L 92.45 59.18
  L 99.52 71.47
  Q 97.49 74.38 94.32 73.21
  Q 93.64 72.95 92.81 73.67
  Q 92.41 74.02 92.04 73.63
  Q 91.55 73.12 91.07 73.64
  Q 90.66 74.07 90.22 73.68
  C 89.37 72.95 85.97 73.78 84.43 73.27
  A 0.91 0.88 -51.1 0 0 83.70 73.36
  Q 82.92 73.85 82.02 73.69
  Q 81.57 73.61 81.16 73.82
  Q 79.93 74.48 78.95 73.67
  Q 78.56 73.35 78.08 73.52
  Q 77.31 73.81 76.54 73.27
  A 0.54 0.53 34.1 0 0 75.78 73.41
  Q 75.05 74.57 76.28 77.57
  L 65.61 59.36
  L 61.93 53.02
  L 62.08 52.72
  Q 62.37 52.11 62.84 52.59
  L 63.12 52.86
  A 0.74 0.73 70.5 0 0 63.55 53.07
  C 64.88 53.20 66.88 53.31 68.14 52.95
  Q 68.41 52.87 68.70 53.07
  Q 69.08 53.33 69.54 53.34
  L 89.06 53.38
  Z"
/>
<path fill="#2e9cc7" d="
  M 53.34 53.99
  L 41.53 74.24
  Q 40.61 72.88 37.06 74.15
  A 0.85 0.83 -29.3 0 1 36.13 73.90
  Q 35.68 73.36 35.08 73.63
  A 1.02 0.98 42.9 0 1 34.30 73.64
  Q 33.13 73.19 31.64 73.63
  Q 30.12 74.08 28.25 73.36
  Q 27.71 73.16 26.97 73.70
  Q 26.53 74.02 26.13 73.65
  Q 25.53 73.11 25.10 73.64
  A 0.63 0.63 0.0 0 1 24.22 73.72
  Q 23.76 73.34 23.19 73.38
  Q 22.62 73.41 22.13 73.68
  Q 21.39 74.10 20.82 73.60
  Q 20.57 73.38 20.26 73.50
  L 19.87 73.64
  Q 19.43 73.79 19.00 73.62
  L 17.04 72.80
  A 0.77 0.77 0.0 0 1 16.57 72.05
  L 16.64 70.92
  L 26.76 53.52
  Q 27.94 54.37 28.87 53.39
  A 1.19 1.18 -67.6 0 1 29.75 53.02
  L 51.16 53.16
  Q 51.61 53.16 51.91 52.82
  Q 52.14 52.57 52.44 52.54
  Q 52.85 52.51 52.88 52.91
  Q 52.93 53.42 53.34 53.99
  Z"
/>
<path fill="#807e7e" d="
  M 65.61 59.36
  L 76.28 77.57
  L 79.06 82.44
  L 69.29 99.00
  L 42.50 99.00
  L 65.61 59.36
  Z"
/>
<path fill="#248ccb" d="
  M 16.64 70.92
  L 16.57 72.05
  A 0.77 0.77 0.0 0 0 17.04 72.80
  L 19.00 73.62
  Q 19.43 73.79 19.87 73.64
  L 20.26 73.50
  Q 20.57 73.38 20.82 73.60
  Q 21.39 74.10 22.13 73.68
  Q 22.62 73.41 23.19 73.38
  Q 23.76 73.34 24.22 73.72
  A 0.63 0.63 0.0 0 0 25.10 73.64
  Q 25.53 73.11 26.13 73.65
  Q 26.53 74.02 26.97 73.70
  Q 27.71 73.16 28.25 73.36
  Q 30.12 74.08 31.64 73.63
  Q 33.13 73.19 34.30 73.64
  A 1.02 0.98 42.9 0 0 35.08 73.63
  Q 35.68 73.36 36.13 73.90
  A 0.85 0.83 -29.3 0 0 37.06 74.15
  Q 40.61 72.88 41.53 74.24
  L 27.13 99.00
  L 0.67 99.00
  Q 0.48 98.59 0.62 98.35
  Q 8.64 84.67 16.64 70.92
  Z"
/>
<path fill="#248ccb" d="
  M 99.52 71.47
  L 115.57 99.00
  L 88.72 99.00
  L 79.06 82.44
  L 76.28 77.57
  Q 75.05 74.57 75.78 73.41
  A 0.54 0.53 34.1 0 1 76.54 73.27
  Q 77.31 73.81 78.08 73.52
  Q 78.56 73.35 78.95 73.67
  Q 79.93 74.48 81.16 73.82
  Q 81.57 73.61 82.02 73.69
  Q 82.92 73.85 83.70 73.36
  A 0.91 0.88 -51.1 0 1 84.43 73.27
  C 85.97 73.78 89.37 72.95 90.22 73.68
  Q 90.66 74.07 91.07 73.64
  Q 91.55 73.12 92.04 73.63
  Q 92.41 74.02 92.81 73.67
  Q 93.64 72.95 94.32 73.21
  Q 97.49 74.38 99.52 71.47
  Z"
/>
<path fill="#ffffff" d="
  M 79.06 82.44
  L 88.72 99.00
  L 69.29 99.00
  L 79.06 82.44
  Z"
/>
</svg>
